# xmcd
#
# Track frame offsets:
#	150
#	18441
#	32602
#	57189
#	72823
#	89781
#	110227
#	129453
#	147898
#	161216
#	179918
#	196558
#	214140
#	235884
#	255540
#	274064
#	296462
#
# Disc length: 4257 seconds
#
# Revision: 0
# Processed by: cddbd v1.5.1PL0 Copyright (c) Steve Scherf et al.
# Submitted via: AudioConverter v4.05 Copyright (c) Dennis Rebentrost
#
DISCID=04109f11
DTITLE=DJ Serjant - Magic House
DYEAR=2004
DGENRE=Club House
TTITLE0=Track_1
TTITLE1=Track_2
TTITLE2=Track_3
TTITLE3=Track_4
TTITLE4=Track_5
TTITLE5=Track_6
TTITLE6=Track_7
TTITLE7=Track_8
TTITLE8=Track_9
TTITLE9=Track_10
TTITLE10=Track_11
TTITLE11=Track_12
TTITLE12=Track_13
TTITLE13=Track_14
TTITLE14=Track_15
TTITLE15=Track_16
TTITLE16=Track_17
EXTD=
EXTT0=
EXTT1=
EXTT2=
EXTT3=
EXTT4=
EXTT5=
EXTT6=
EXTT7=
EXTT8=
EXTT9=
EXTT10=
EXTT11=
EXTT12=
EXTT13=
EXTT14=
EXTT15=
EXTT16=
PLAYORDER=
